<?xml version="1.0" standalone="no"?>
<!DOCTYPE svg PUBLIC "-//W3C//DTD SVG 20010904//EN"
 "http://www.w3.org/TR/2001/REC-SVG-20010904/DTD/svg10.dtd">
<svg version="1.0" xmlns="http://www.w3.org/2000/svg"
 width="256.000000pt" height="256.000000pt" viewBox="0 0 256.000000 256.000000"
 preserveAspectRatio="xMidYMid meet">
<metadata>
Created by potrace 1.11, written by Peter Selinger 2001-2013
</metadata>
<g transform="translate(0.000000,256.000000) scale(0.100000,-0.100000)"
fill="#000000" stroke="none">
<path d="M263 2549 c-105 -14 -213 -103 -243 -202 -34 -114 0 -230 91 -311
l55 -48 -33 -156 c-117 -566 -102 -844 57 -1003 36 -35 58 -69 74 -113 101
-268 286 -472 541 -596 192 -93 364 -126 573 -109 394 33 750 293 902 659 28
67 46 95 87 134 162 150 182 416 72 963 l-41 203 55 50 c118 108 134 271 38
396 -54 70 -125 106 -221 112 -110 6 -168 -15 -241 -87 -69 -70 -94 -133 -87
-225 5 -58 43 -156 68 -171 6 -4 -5 -35 -26 -78 -20 -40 -37 -73 -38 -74 -1
-1 -33 5 -71 13 -38 8 -130 19 -203 24 -183 12 -828 -5 -947 -25 -49 -8 -93
-15 -96 -15 -3 0 -23 38 -44 85 -35 79 -36 87 -22 103 51 56 72 183 46 272
-40 132 -191 219 -346 199z m120 -153 c57 -24 90 -69 95 -128 5 -62 -21 -109
-78 -142 -74 -44 -179 -19 -228 55 -34 49 -27 127 14 170 53 57 129 74 197 45z
m1955 -33 c103 -76 94 -203 -18 -261 -86 -45 -191 -6 -225 82 -30 77 0 151 77
190 44 22 129 17 166 -11z m-1865 -478 c9 -20 17 -37 17 -39 0 -3 -22 -18 -50
-35 -65 -40 -122 -92 -166 -153 -20 -27 -38 -48 -39 -46 -2 2 9 64 24 138 l27
135 49 6 c28 4 61 12 75 17 39 17 45 14 63 -23z m1690 0 c20 -8 54 -15 75 -15
l39 0 22 -111 c12 -61 21 -113 19 -114 -2 -2 -22 20 -45 49 -23 30 -73 74
-115 103 -74 50 -75 50 -61 76 16 31 19 32 66 12z m-553 -48 c0 -2 -27 -61
-60 -130 l-60 -127 -208 0 -207 0 -63 123 c-34 67 -62 125 -62 130 0 7 660 11
660 4z m309 -83 c185 -53 297 -166 322 -324 12 -79 9 -153 -15 -385 -24 -217
-61 -331 -160 -479 -134 -201 -352 -350 -591 -404 -113 -25 -307 -20 -426 11
-276 72 -506 265 -625 521 -40 88 -71 197 -79 279 -3 34 -13 121 -22 192 -28
235 -6 335 97 449 77 84 181 131 352 160 l37 7 86 -171 87 -170 303 0 303 0
20 48 c11 26 48 104 81 173 l60 126 58 -9 c32 -5 83 -16 112 -24z"/>
<path d="M651 1352 c-70 -35 -76 -52 -79 -255 -4 -203 2 -238 48 -282 l31 -30
617 -3 c572 -2 620 -1 652 15 64 33 71 61 68 290 -3 199 -3 202 -28 228 -53
57 -30 55 -677 55 -550 0 -601 -1 -632 -18z m249 -88 c51 -31 60 -60 60 -194
0 -95 -4 -128 -16 -150 -47 -78 -168 -80 -220 -3 -16 24 -19 47 -19 153 0 106
3 129 19 153 37 55 119 74 176 41z m891 1 c56 -29 69 -66 69 -195 0 -129 -13
-166 -69 -195 -62 -32 -129 -14 -168 44 -21 31 -23 46 -23 151 0 105 2 120 23
151 39 58 106 76 168 44z"/>
<path d="M992 443 l3 -88 280 0 280 0 3 88 3 87 -286 0 -286 0 3 -87z"/>
</g>
</svg>
